<?xml version="1.0" encoding="UTF-8" standalone="no"?>
<svg xmlns:svg="http://www.w3.org/2000/svg"
xmlns="http://www.w3.org/2000/svg" version="1.1"
width="360" height="185">
<title>Bundestag 2017</title>
<desc>Diagrammatic representation of the Deutscher Bundestag immediately after the Bundestagswahl 2017</desc>
<!-- Created with the Wikimedia parliament diagram creator (http://tools.wmflabs.org/parliamentdiagram/parliamentinputform.html) -->
<g>
<text x="175" y="175" style="font-size:36px;font-weight:bold;text-align:center;text-anchor:middle;font-family:Sans">709</text>
  <g style="fill:#BE3075" id="Linke">
    <circle cx="8.60" cy="177.14" r="2.86"/>
    <circle cx="15.74" cy="177.14" r="2.86"/>
    <circle cx="22.88" cy="177.14" r="2.86"/>
    <circle cx="30.03" cy="177.14" r="2.86"/>
    <circle cx="37.17" cy="177.14" r="2.86"/>
    <circle cx="44.32" cy="177.14" r="2.86"/>
    <circle cx="51.46" cy="177.14" r="2.86"/>
    <circle cx="58.61" cy="177.14" r="2.86"/>
    <circle cx="65.75" cy="177.14" r="2.86"/>
    <circle cx="72.90" cy="177.14" r="2.86"/>
    <circle cx="80.04" cy="177.14" r="2.86"/>
    <circle cx="87.19" cy="177.14" r="2.86"/>
    <circle cx="94.33" cy="177.14" r="2.86"/>
    <circle cx="101.48" cy="177.14" r="2.86"/>
    <circle cx="8.90" cy="169.43" r="2.86"/>
    <circle cx="16.06" cy="169.42" r="2.86"/>
    <circle cx="23.21" cy="169.41" r="2.86"/>
    <circle cx="30.38" cy="169.39" r="2.86"/>
    <circle cx="37.54" cy="169.38" r="2.86"/>
    <circle cx="44.70" cy="169.36" r="2.86"/>
    <circle cx="51.87" cy="169.35" r="2.86"/>
    <circle cx="59.04" cy="169.33" r="2.86"/>
    <circle cx="66.22" cy="169.31" r="2.86"/>
    <circle cx="73.39" cy="169.28" r="2.86"/>
    <circle cx="9.55" cy="161.73" r="2.86"/>
    <circle cx="80.58" cy="169.26" r="2.86"/>
    <circle cx="16.74" cy="161.71" r="2.86"/>
    <circle cx="87.77" cy="169.22" r="2.86"/>
    <circle cx="23.93" cy="161.69" r="2.86"/>
    <circle cx="31.12" cy="161.67" r="2.86"/>
    <circle cx="94.94" cy="169.42" r="2.86"/>
    <circle cx="38.33" cy="161.65" r="2.86"/>
    <circle cx="102.15" cy="169.40" r="2.86"/>
    <circle cx="45.54" cy="161.62" r="2.86"/>
    <circle cx="52.75" cy="161.59" r="2.86"/>
    <circle cx="10.54" cy="154.08" r="2.86"/>
    <circle cx="59.98" cy="161.56" r="2.86"/>
    <circle cx="17.78" cy="154.05" r="2.86"/>
    <circle cx="67.22" cy="161.52" r="2.86"/>
    <circle cx="25.02" cy="154.03" r="2.86"/>
    <circle cx="74.47" cy="161.48" r="2.86"/>
    <circle cx="32.27" cy="154.00" r="2.86"/>
    <circle cx="39.53" cy="153.97" r="2.86"/>
    <circle cx="81.74" cy="161.43" r="2.86"/>
    <circle cx="46.81" cy="153.94" r="2.86"/>
    <circle cx="11.88" cy="146.47" r="2.86"/>
    <circle cx="89.03" cy="161.38" r="2.86"/>
    <circle cx="54.11" cy="153.90" r="2.86"/>
    <circle cx="19.18" cy="146.45" r="2.86"/>
    <circle cx="96.24" cy="161.78" r="2.86"/>
    <circle cx="26.49" cy="146.42" r="2.86"/>
    <circle cx="61.42" cy="153.86" r="2.86"/>
    <circle cx="33.81" cy="146.40" r="2.86"/>
    <circle cx="68.75" cy="153.82" r="2.86"/>
    <circle cx="103.58" cy="161.76" r="2.86"/>
    <circle cx="41.16" cy="146.37" r="2.86"/>
    <circle cx="13.56" cy="138.93" r="2.86"/>
    <circle cx="76.12" cy="153.78" r="2.86"/>
    <circle cx="48.53" cy="146.34" r="2.86"/>
    <circle cx="20.93" cy="138.92" r="2.86"/>
    <circle cx="28.33" cy="138.90" r="2.86"/>
    <circle cx="55.92" cy="146.31" r="2.86"/>
    <circle cx="83.51" cy="153.73" r="2.86"/>
    <circle cx="35.75" cy="138.88" r="2.86"/>
    <circle cx="63.35" cy="146.28" r="2.86"/>
    <circle cx="15.58" cy="131.48" r="2.86"/>
    <circle cx="90.95" cy="153.68" r="2.86"/>
    <circle cx="43.19" cy="138.87" r="2.86"/>
    <circle cx="70.81" cy="146.25" r="2.86"/>
  </g>
  <g style="fill:#EB001F" id="SPD">
    <circle cx="23.04" cy="131.48" r="2.86"/>
    <circle cx="98.23" cy="154.29" r="2.86"/>
    <circle cx="50.67" cy="138.85" r="2.86"/>
    <circle cx="30.54" cy="131.48" r="2.86"/>
    <circle cx="78.32" cy="146.22" r="2.86"/>
    <circle cx="58.19" cy="138.84" r="2.86"/>
    <circle cx="38.06" cy="131.48" r="2.86"/>
    <circle cx="17.93" cy="124.13" r="2.86"/>
    <circle cx="105.75" cy="154.29" r="2.86"/>
    <circle cx="85.89" cy="146.19" r="2.86"/>
    <circle cx="65.76" cy="138.83" r="2.86"/>
    <circle cx="45.63" cy="131.49" r="2.86"/>
    <circle cx="25.50" cy="124.15" r="2.86"/>
    <circle cx="33.11" cy="124.17" r="2.86"/>
    <circle cx="53.25" cy="131.50" r="2.86"/>
    <circle cx="73.39" cy="138.83" r="2.86"/>
    <circle cx="93.53" cy="146.16" r="2.86"/>
    <circle cx="20.61" cy="116.88" r="2.86"/>
    <circle cx="40.76" cy="124.21" r="2.86"/>
    <circle cx="60.92" cy="131.52" r="2.86"/>
    <circle cx="28.30" cy="116.94" r="2.86"/>
    <circle cx="81.08" cy="138.84" r="2.86"/>
    <circle cx="100.89" cy="147.01" r="2.86"/>
    <circle cx="48.47" cy="124.25" r="2.86"/>
    <circle cx="68.65" cy="131.56" r="2.86"/>
    <circle cx="36.04" cy="117.00" r="2.86"/>
    <circle cx="23.62" cy="109.77" r="2.86"/>
    <circle cx="56.24" cy="124.31" r="2.86"/>
    <circle cx="88.86" cy="138.86" r="2.86"/>
    <circle cx="108.66" cy="147.08" r="2.86"/>
    <circle cx="43.83" cy="117.08" r="2.86"/>
    <circle cx="76.46" cy="131.61" r="2.86"/>
    <circle cx="31.44" cy="109.87" r="2.86"/>
    <circle cx="64.08" cy="124.39" r="2.86"/>
    <circle cx="51.70" cy="117.18" r="2.86"/>
    <circle cx="96.74" cy="138.90" r="2.86"/>
    <circle cx="39.32" cy="109.99" r="2.86"/>
    <circle cx="26.94" cy="102.80" r="2.86"/>
    <circle cx="84.37" cy="131.68" r="2.86"/>
    <circle cx="72.00" cy="124.49" r="2.86"/>
    <circle cx="59.64" cy="117.30" r="2.86"/>
    <circle cx="47.27" cy="110.13" r="2.86"/>
    <circle cx="104.19" cy="140.00" r="2.86"/>
    <circle cx="34.90" cy="102.96" r="2.86"/>
    <circle cx="92.39" cy="131.79" r="2.86"/>
    <circle cx="80.03" cy="124.62" r="2.86"/>
    <circle cx="67.67" cy="117.45" r="2.86"/>
    <circle cx="55.30" cy="110.29" r="2.86"/>
    <circle cx="42.94" cy="103.14" r="2.86"/>
    <circle cx="30.57" cy="95.99" r="2.86"/>
    <circle cx="112.26" cy="140.19" r="2.86"/>
    <circle cx="38.69" cy="96.21" r="2.86"/>
    <circle cx="51.06" cy="103.36" r="2.86"/>
    <circle cx="63.43" cy="110.50" r="2.86"/>
    <circle cx="75.80" cy="117.64" r="2.86"/>
    <circle cx="88.18" cy="124.79" r="2.86"/>
    <circle cx="100.55" cy="131.93" r="2.86"/>
    <circle cx="34.50" cy="89.34" r="2.86"/>
    <circle cx="46.89" cy="96.48" r="2.86"/>
    <circle cx="59.28" cy="103.62" r="2.86"/>
    <circle cx="71.67" cy="110.75" r="2.86"/>
    <circle cx="84.07" cy="117.88" r="2.86"/>
    <circle cx="108.11" cy="133.32" r="2.86"/>
    <circle cx="96.47" cy="125.01" r="2.86"/>
    <circle cx="42.79" cy="89.66" r="2.86"/>
    <circle cx="55.19" cy="96.79" r="2.86"/>
    <circle cx="67.61" cy="103.93" r="2.86"/>
    <circle cx="38.73" cy="82.88" r="2.86"/>
    <circle cx="80.04" cy="111.06" r="2.86"/>
    <circle cx="51.17" cy="90.02" r="2.86"/>
    <circle cx="92.48" cy="118.19" r="2.86"/>
    <circle cx="63.61" cy="97.16" r="2.86"/>
    <circle cx="47.19" cy="83.30" r="2.86"/>
    <circle cx="76.07" cy="104.30" r="2.86"/>
    <circle cx="104.95" cy="125.32" r="2.86"/>
    <circle cx="116.53" cy="133.69" r="2.86"/>
    <circle cx="59.66" cy="90.45" r="2.86"/>
    <circle cx="88.56" cy="111.45" r="2.86"/>
    <circle cx="43.25" cy="76.62" r="2.86"/>
    <circle cx="72.16" cy="97.61" r="2.86"/>
    <circle cx="55.76" cy="83.78" r="2.86"/>
    <circle cx="101.08" cy="118.59" r="2.86"/>
    <circle cx="112.62" cy="127.01" r="2.86"/>
    <circle cx="84.69" cy="104.76" r="2.86"/>
    <circle cx="68.29" cy="90.96" r="2.86"/>
    <circle cx="51.89" cy="77.16" r="2.86"/>
    <circle cx="97.26" cy="111.93" r="2.86"/>
    <circle cx="80.86" cy="98.14" r="2.86"/>
    <circle cx="64.45" cy="84.35" r="2.86"/>
    <circle cx="48.05" cy="70.57" r="2.86"/>
    <circle cx="60.65" cy="77.78" r="2.86"/>
    <circle cx="77.06" cy="91.55" r="2.86"/>
    <circle cx="93.48" cy="105.33" r="2.86"/>
    <circle cx="109.90" cy="119.11" r="2.86"/>
    <circle cx="56.87" cy="71.24" r="2.86"/>
    <circle cx="73.30" cy="85.01" r="2.86"/>
    <circle cx="121.42" cy="127.64" r="2.86"/>
    <circle cx="89.73" cy="98.78" r="2.86"/>
    <circle cx="53.11" cy="64.73" r="2.86"/>
    <circle cx="106.18" cy="112.54" r="2.86"/>
    <circle cx="69.55" cy="78.50" r="2.86"/>
    <circle cx="86.01" cy="92.27" r="2.86"/>
    <circle cx="117.69" cy="121.15" r="2.86"/>
    <circle cx="65.83" cy="72.02" r="2.86"/>
    <circle cx="102.48" cy="106.03" r="2.86"/>
    <circle cx="82.31" cy="85.80" r="2.86"/>
    <circle cx="62.12" cy="65.57" r="2.86"/>
    <circle cx="98.81" cy="99.57" r="2.86"/>
    <circle cx="78.62" cy="79.35" r="2.86"/>
    <circle cx="58.43" cy="59.14" r="2.86"/>
    <circle cx="74.95" cy="72.93" r="2.86"/>
    <circle cx="95.15" cy="93.13" r="2.86"/>
    <circle cx="115.36" cy="113.34" r="2.86"/>
    <circle cx="71.29" cy="66.53" r="2.86"/>
    <circle cx="91.51" cy="86.73" r="2.86"/>
    <circle cx="67.64" cy="60.15" r="2.86"/>
    <circle cx="111.74" cy="106.92" r="2.86"/>
    <circle cx="87.87" cy="80.35" r="2.86"/>
    <circle cx="63.99" cy="53.79" r="2.86"/>
    <circle cx="126.88" cy="122.11" r="2.86"/>
    <circle cx="108.13" cy="100.54" r="2.86"/>
    <circle cx="84.25" cy="73.98" r="2.86"/>
    <circle cx="80.63" cy="67.64" r="2.86"/>
    <circle cx="123.26" cy="115.76" r="2.86"/>
    <circle cx="104.52" cy="94.18" r="2.86"/>
    <circle cx="77.01" cy="61.31" r="2.86"/>
    <circle cx="100.93" cy="87.85" r="2.86"/>
    <circle cx="73.40" cy="54.99" r="2.86"/>
    <circle cx="97.33" cy="81.53" r="2.86"/>
    <circle cx="69.79" cy="48.69" r="2.86"/>
    <circle cx="93.74" cy="75.23" r="2.86"/>
    <circle cx="121.29" cy="108.06" r="2.86"/>
    <circle cx="90.15" cy="68.93" r="2.86"/>
    <circle cx="86.57" cy="62.65" r="2.86"/>
    <circle cx="117.72" cy="101.76" r="2.86"/>
    <circle cx="82.98" cy="56.38" r="2.86"/>
    <circle cx="114.16" cy="95.47" r="2.86"/>
    <circle cx="79.40" cy="50.12" r="2.86"/>
    <circle cx="75.82" cy="43.86" r="2.86"/>
    <circle cx="110.59" cy="89.20" r="2.86"/>
    <circle cx="107.03" cy="82.94" r="2.86"/>
    <circle cx="132.86" cy="117.14" r="2.86"/>
    <circle cx="103.46" cy="76.69" r="2.86"/>
    <circle cx="129.29" cy="110.90" r="2.86"/>
    <circle cx="99.89" cy="70.45" r="2.86"/>
    <circle cx="96.33" cy="64.21" r="2.86"/>
    <circle cx="92.76" cy="57.98" r="2.86"/>
    <circle cx="89.19" cy="51.75" r="2.86"/>
    <circle cx="85.62" cy="45.53" r="2.86"/>
    <circle cx="82.06" cy="39.31" r="2.86"/>
    <circle cx="127.65" cy="103.30" r="2.86"/>
    <circle cx="124.10" cy="97.08" r="2.86"/>
    <circle cx="120.55" cy="90.87" r="2.86"/>
  </g>
  <g style="fill:#64A12D" id="Grüne">
    <circle cx="116.99" cy="84.65" r="2.86"/>
    <circle cx="113.43" cy="78.44" r="2.86"/>
    <circle cx="109.87" cy="72.24" r="2.86"/>
    <circle cx="106.31" cy="66.03" r="2.86"/>
    <circle cx="102.75" cy="59.83" r="2.86"/>
    <circle cx="99.18" cy="53.63" r="2.86"/>
    <circle cx="95.62" cy="47.43" r="2.86"/>
    <circle cx="92.06" cy="41.24" r="2.86"/>
    <circle cx="88.49" cy="35.04" r="2.86"/>
    <circle cx="139.30" cy="112.79" r="2.86"/>
    <circle cx="135.74" cy="106.60" r="2.86"/>
    <circle cx="95.11" cy="31.06" r="2.86"/>
    <circle cx="98.68" cy="37.25" r="2.86"/>
    <circle cx="102.25" cy="43.44" r="2.86"/>
    <circle cx="105.83" cy="49.62" r="2.86"/>
    <circle cx="109.40" cy="55.81" r="2.86"/>
    <circle cx="112.97" cy="61.99" r="2.86"/>
    <circle cx="116.54" cy="68.18" r="2.86"/>
    <circle cx="120.11" cy="74.37" r="2.86"/>
    <circle cx="123.68" cy="80.55" r="2.86"/>
    <circle cx="127.26" cy="86.74" r="2.86"/>
    <circle cx="130.83" cy="92.93" r="2.86"/>
    <circle cx="134.40" cy="99.11" r="2.86"/>
    <circle cx="101.90" cy="27.39" r="2.86"/>
    <circle cx="105.49" cy="33.58" r="2.86"/>
    <circle cx="109.08" cy="39.77" r="2.86"/>
    <circle cx="112.67" cy="45.96" r="2.86"/>
    <circle cx="116.26" cy="52.15" r="2.86"/>
    <circle cx="119.85" cy="58.34" r="2.86"/>
    <circle cx="123.44" cy="64.54" r="2.86"/>
    <circle cx="142.55" cy="102.90" r="2.86"/>
    <circle cx="127.04" cy="70.73" r="2.86"/>
    <circle cx="130.64" cy="76.92" r="2.86"/>
    <circle cx="146.14" cy="109.10" r="2.86"/>
    <circle cx="134.25" cy="83.12" r="2.86"/>
    <circle cx="137.86" cy="89.31" r="2.86"/>
    <circle cx="108.86" cy="24.03" r="2.86"/>
    <circle cx="141.48" cy="95.51" r="2.86"/>
    <circle cx="112.46" cy="30.24" r="2.86"/>
    <circle cx="116.07" cy="36.45" r="2.86"/>
    <circle cx="119.69" cy="42.66" r="2.86"/>
    <circle cx="123.30" cy="48.88" r="2.86"/>
    <circle cx="126.93" cy="55.09" r="2.86"/>
    <circle cx="130.56" cy="61.32" r="2.86"/>
    <circle cx="134.19" cy="67.54" r="2.86"/>
    <circle cx="115.95" cy="20.99" r="2.86"/>
    <circle cx="137.84" cy="73.78" r="2.86"/>
    <circle cx="119.58" cy="27.23" r="2.86"/>
    <circle cx="123.22" cy="33.47" r="2.86"/>
    <circle cx="141.49" cy="80.02" r="2.86"/>
    <circle cx="126.87" cy="39.73" r="2.86"/>
    <circle cx="149.66" cy="99.83" r="2.86"/>
    <circle cx="145.16" cy="86.27" r="2.86"/>
    <circle cx="130.52" cy="45.99" r="2.86"/>
    <circle cx="153.32" cy="106.10" r="2.86"/>
    <circle cx="134.18" cy="52.25" r="2.86"/>
    <circle cx="148.84" cy="92.53" r="2.86"/>
    <circle cx="123.18" cy="18.26" r="2.86"/>
    <circle cx="137.85" cy="58.53" r="2.86"/>
    <circle cx="126.84" cy="24.55" r="2.86"/>
    <circle cx="141.53" cy="64.83" r="2.86"/>
    <circle cx="130.51" cy="30.85" r="2.86"/>
    <circle cx="134.19" cy="37.17" r="2.86"/>
    <circle cx="145.23" cy="71.13" r="2.86"/>
    <circle cx="137.88" cy="43.49" r="2.86"/>
    <circle cx="148.94" cy="77.46" r="2.86"/>
    <circle cx="141.58" cy="49.84" r="2.86"/>
  </g>
  <g style="fill:#FFED00" id="FDP">
    <circle cx="130.52" cy="15.87" r="2.86"/>
    <circle cx="134.21" cy="22.22" r="2.86"/>
    <circle cx="152.67" cy="83.81" r="2.86"/>
    <circle cx="145.30" cy="56.20" r="2.86"/>
    <circle cx="157.03" cy="97.42" r="2.86"/>
    <circle cx="137.92" cy="28.60" r="2.86"/>
    <circle cx="141.64" cy="34.99" r="2.86"/>
    <circle cx="149.03" cy="62.59" r="2.86"/>
    <circle cx="156.43" cy="90.18" r="2.86"/>
    <circle cx="137.96" cy="13.81" r="2.86"/>
    <circle cx="160.75" cy="103.82" r="2.86"/>
    <circle cx="145.37" cy="41.40" r="2.86"/>
    <circle cx="152.78" cy="69.00" r="2.86"/>
    <circle cx="141.69" cy="20.24" r="2.86"/>
    <circle cx="149.11" cy="47.85" r="2.86"/>
    <circle cx="145.43" cy="26.71" r="2.86"/>
    <circle cx="156.56" cy="75.45" r="2.86"/>
    <circle cx="152.88" cy="54.32" r="2.86"/>
    <circle cx="149.19" cy="33.20" r="2.86"/>
    <circle cx="145.49" cy="12.08" r="2.86"/>
    <circle cx="160.36" cy="81.95" r="2.86"/>
    <circle cx="156.66" cy="60.84" r="2.86"/>
    <circle cx="152.96" cy="39.73" r="2.86"/>
    <circle cx="149.25" cy="18.62" r="2.86"/>
    <circle cx="164.58" cy="95.68" r="2.86"/>
    <circle cx="153.03" cy="25.19" r="2.86"/>
    <circle cx="156.75" cy="46.29" r="2.86"/>
    <circle cx="160.47" cy="67.40" r="2.86"/>
    <circle cx="164.19" cy="88.50" r="2.86"/>
    <circle cx="153.08" cy="10.70" r="2.86"/>
    <circle cx="156.82" cy="31.80" r="2.86"/>
    <circle cx="160.56" cy="52.91" r="2.86"/>
    <circle cx="168.38" cy="102.29" r="2.86"/>
    <circle cx="164.30" cy="74.01" r="2.86"/>
    <circle cx="156.88" cy="17.35" r="2.86"/>
    <circle cx="160.63" cy="38.46" r="2.86"/>
    <circle cx="164.39" cy="59.58" r="2.86"/>
    <circle cx="160.69" cy="24.05" r="2.86"/>
    <circle cx="168.16" cy="80.70" r="2.86"/>
    <circle cx="164.45" cy="45.18" r="2.86"/>
    <circle cx="160.73" cy="9.66" r="2.86"/>
    <circle cx="164.51" cy="30.80" r="2.86"/>
    <circle cx="168.24" cy="66.32" r="2.86"/>
    <circle cx="164.56" cy="16.44" r="2.86"/>
    <circle cx="168.30" cy="51.96" r="2.86"/>
    <circle cx="172.26" cy="94.64" r="2.86"/>
    <circle cx="172.07" cy="87.48" r="2.86"/>
    <circle cx="168.35" cy="37.62" r="2.86"/>
    <circle cx="168.39" cy="23.29" r="2.86"/>
    <circle cx="172.13" cy="73.15" r="2.86"/>
    <circle cx="168.43" cy="8.96" r="2.86"/>
    <circle cx="172.18" cy="58.82" r="2.86"/>
    <circle cx="172.21" cy="44.51" r="2.86"/>
    <circle cx="172.24" cy="30.20" r="2.86"/>
    <circle cx="176.11" cy="101.52" r="2.86"/>
    <circle cx="172.27" cy="15.90" r="2.86"/>
    <circle cx="176.05" cy="80.08" r="2.86"/>
    <circle cx="176.07" cy="65.78" r="2.86"/>
    <circle cx="176.10" cy="51.49" r="2.86"/>
    <circle cx="176.11" cy="37.20" r="2.86"/>
    <circle cx="176.13" cy="22.90" r="2.86"/>
    <circle cx="176.14" cy="8.61" r="2.86"/>
    <circle cx="180.00" cy="15.71" r="2.86"/>
    <circle cx="180.00" cy="30.00" r="2.86"/>
    <circle cx="180.00" cy="44.29" r="2.86"/>
    <circle cx="180.00" cy="58.57" r="2.86"/>
    <circle cx="180.00" cy="87.14" r="2.86"/>
    <circle cx="180.00" cy="94.29" r="2.86"/>
    <circle cx="180.00" cy="72.86" r="2.86"/>
    <circle cx="183.86" cy="8.61" r="2.86"/>
    <circle cx="183.87" cy="22.90" r="2.86"/>
    <circle cx="183.89" cy="37.20" r="2.86"/>
    <circle cx="183.90" cy="51.49" r="2.86"/>
    <circle cx="183.93" cy="65.78" r="2.86"/>
    <circle cx="183.95" cy="80.08" r="2.86"/>
    <circle cx="187.73" cy="15.90" r="2.86"/>
    <circle cx="183.89" cy="101.52" r="2.86"/>
    <circle cx="187.76" cy="30.20" r="2.86"/>
    <circle cx="187.79" cy="44.51" r="2.86"/>
    <circle cx="187.82" cy="58.82" r="2.86"/>
  </g>
  <g style="fill:#000000" id="CDU">
    <circle cx="191.57" cy="8.96" r="2.86"/>
    <circle cx="187.87" cy="73.15" r="2.86"/>
    <circle cx="191.61" cy="23.29" r="2.86"/>
    <circle cx="191.65" cy="37.62" r="2.86"/>
    <circle cx="187.93" cy="87.48" r="2.86"/>
    <circle cx="187.74" cy="94.64" r="2.86"/>
    <circle cx="191.70" cy="51.96" r="2.86"/>
    <circle cx="195.44" cy="16.44" r="2.86"/>
    <circle cx="191.76" cy="66.32" r="2.86"/>
    <circle cx="195.49" cy="30.80" r="2.86"/>
    <circle cx="199.27" cy="9.66" r="2.86"/>
    <circle cx="195.55" cy="45.18" r="2.86"/>
    <circle cx="191.84" cy="80.70" r="2.86"/>
    <circle cx="199.31" cy="24.05" r="2.86"/>
    <circle cx="195.61" cy="59.58" r="2.86"/>
    <circle cx="199.37" cy="38.46" r="2.86"/>
    <circle cx="203.12" cy="17.35" r="2.86"/>
    <circle cx="195.70" cy="74.01" r="2.86"/>
    <circle cx="191.62" cy="102.29" r="2.86"/>
    <circle cx="199.44" cy="52.91" r="2.86"/>
    <circle cx="203.18" cy="31.80" r="2.86"/>
    <circle cx="206.92" cy="10.70" r="2.86"/>
    <circle cx="195.81" cy="88.50" r="2.86"/>
    <circle cx="199.53" cy="67.40" r="2.86"/>
    <circle cx="203.25" cy="46.29" r="2.86"/>
    <circle cx="206.97" cy="25.19" r="2.86"/>
    <circle cx="195.42" cy="95.68" r="2.86"/>
    <circle cx="210.75" cy="18.62" r="2.86"/>
    <circle cx="207.04" cy="39.73" r="2.86"/>
    <circle cx="203.34" cy="60.84" r="2.86"/>
    <circle cx="199.64" cy="81.95" r="2.86"/>
    <circle cx="214.51" cy="12.08" r="2.86"/>
    <circle cx="210.81" cy="33.20" r="2.86"/>
    <circle cx="207.12" cy="54.32" r="2.86"/>
    <circle cx="203.44" cy="75.45" r="2.86"/>
    <circle cx="214.57" cy="26.71" r="2.86"/>
    <circle cx="210.89" cy="47.85" r="2.86"/>
    <circle cx="218.31" cy="20.24" r="2.86"/>
    <circle cx="207.22" cy="69.00" r="2.86"/>
    <circle cx="214.63" cy="41.40" r="2.86"/>
    <circle cx="199.25" cy="103.82" r="2.86"/>
    <circle cx="222.04" cy="13.81" r="2.86"/>
    <circle cx="203.57" cy="90.18" r="2.86"/>
    <circle cx="210.97" cy="62.59" r="2.86"/>
    <circle cx="218.36" cy="34.99" r="2.86"/>
    <circle cx="222.08" cy="28.60" r="2.86"/>
    <circle cx="202.97" cy="97.42" r="2.86"/>
    <circle cx="214.70" cy="56.20" r="2.86"/>
    <circle cx="207.33" cy="83.81" r="2.86"/>
    <circle cx="225.79" cy="22.22" r="2.86"/>
    <circle cx="218.42" cy="49.84" r="2.86"/>
    <circle cx="229.48" cy="15.87" r="2.86"/>
    <circle cx="211.06" cy="77.46" r="2.86"/>
    <circle cx="222.12" cy="43.49" r="2.86"/>
    <circle cx="214.77" cy="71.13" r="2.86"/>
    <circle cx="225.81" cy="37.17" r="2.86"/>
    <circle cx="229.49" cy="30.85" r="2.86"/>
    <circle cx="218.47" cy="64.83" r="2.86"/>
    <circle cx="233.16" cy="24.55" r="2.86"/>
    <circle cx="222.15" cy="58.53" r="2.86"/>
    <circle cx="236.82" cy="18.26" r="2.86"/>
    <circle cx="211.16" cy="92.53" r="2.86"/>
    <circle cx="225.82" cy="52.25" r="2.86"/>
    <circle cx="206.68" cy="106.10" r="2.86"/>
    <circle cx="229.48" cy="45.99" r="2.86"/>
    <circle cx="214.84" cy="86.27" r="2.86"/>
    <circle cx="210.34" cy="99.83" r="2.86"/>
    <circle cx="233.13" cy="39.73" r="2.86"/>
    <circle cx="218.51" cy="80.02" r="2.86"/>
    <circle cx="236.78" cy="33.47" r="2.86"/>
    <circle cx="240.42" cy="27.23" r="2.86"/>
    <circle cx="222.16" cy="73.78" r="2.86"/>
    <circle cx="244.05" cy="20.99" r="2.86"/>
    <circle cx="225.81" cy="67.54" r="2.86"/>
    <circle cx="229.44" cy="61.32" r="2.86"/>
    <circle cx="233.07" cy="55.09" r="2.86"/>
    <circle cx="236.70" cy="48.88" r="2.86"/>
    <circle cx="240.31" cy="42.66" r="2.86"/>
    <circle cx="243.93" cy="36.45" r="2.86"/>
    <circle cx="247.54" cy="30.24" r="2.86"/>
    <circle cx="218.52" cy="95.51" r="2.86"/>
    <circle cx="251.14" cy="24.03" r="2.86"/>
    <circle cx="222.14" cy="89.31" r="2.86"/>
    <circle cx="225.75" cy="83.12" r="2.86"/>
    <circle cx="213.86" cy="109.10" r="2.86"/>
    <circle cx="229.36" cy="76.92" r="2.86"/>
    <circle cx="232.96" cy="70.73" r="2.86"/>
    <circle cx="217.45" cy="102.90" r="2.86"/>
    <circle cx="236.56" cy="64.54" r="2.86"/>
    <circle cx="240.15" cy="58.34" r="2.86"/>
    <circle cx="243.74" cy="52.15" r="2.86"/>
    <circle cx="247.33" cy="45.96" r="2.86"/>
    <circle cx="250.92" cy="39.77" r="2.86"/>
    <circle cx="254.51" cy="33.58" r="2.86"/>
    <circle cx="258.10" cy="27.39" r="2.86"/>
    <circle cx="225.60" cy="99.11" r="2.86"/>
    <circle cx="229.17" cy="92.93" r="2.86"/>
    <circle cx="232.74" cy="86.74" r="2.86"/>
    <circle cx="236.32" cy="80.55" r="2.86"/>
    <circle cx="239.89" cy="74.37" r="2.86"/>
    <circle cx="243.46" cy="68.18" r="2.86"/>
    <circle cx="247.03" cy="61.99" r="2.86"/>
    <circle cx="250.60" cy="55.81" r="2.86"/>
    <circle cx="254.17" cy="49.62" r="2.86"/>
    <circle cx="257.75" cy="43.44" r="2.86"/>
    <circle cx="261.32" cy="37.25" r="2.86"/>
    <circle cx="264.89" cy="31.06" r="2.86"/>
    <circle cx="224.26" cy="106.60" r="2.86"/>
    <circle cx="220.70" cy="112.79" r="2.86"/>
    <circle cx="271.51" cy="35.04" r="2.86"/>
    <circle cx="267.94" cy="41.24" r="2.86"/>
    <circle cx="264.38" cy="47.43" r="2.86"/>
    <circle cx="260.82" cy="53.63" r="2.86"/>
    <circle cx="257.25" cy="59.83" r="2.86"/>
    <circle cx="253.69" cy="66.03" r="2.86"/>
    <circle cx="250.13" cy="72.24" r="2.86"/>
    <circle cx="246.57" cy="78.44" r="2.86"/>
    <circle cx="243.01" cy="84.65" r="2.86"/>
    <circle cx="239.45" cy="90.87" r="2.86"/>
    <circle cx="235.90" cy="97.08" r="2.86"/>
    <circle cx="232.35" cy="103.30" r="2.86"/>
    <circle cx="277.94" cy="39.31" r="2.86"/>
    <circle cx="274.38" cy="45.53" r="2.86"/>
    <circle cx="270.81" cy="51.75" r="2.86"/>
    <circle cx="267.24" cy="57.98" r="2.86"/>
    <circle cx="263.67" cy="64.21" r="2.86"/>
    <circle cx="260.11" cy="70.45" r="2.86"/>
    <circle cx="230.71" cy="110.90" r="2.86"/>
    <circle cx="256.54" cy="76.69" r="2.86"/>
    <circle cx="227.14" cy="117.14" r="2.86"/>
    <circle cx="252.97" cy="82.94" r="2.86"/>
    <circle cx="249.41" cy="89.20" r="2.86"/>
    <circle cx="284.18" cy="43.86" r="2.86"/>
    <circle cx="280.60" cy="50.12" r="2.86"/>
    <circle cx="245.84" cy="95.47" r="2.86"/>
    <circle cx="277.02" cy="56.38" r="2.86"/>
    <circle cx="242.28" cy="101.76" r="2.86"/>
    <circle cx="273.43" cy="62.65" r="2.86"/>
    <circle cx="269.85" cy="68.93" r="2.86"/>
    <circle cx="238.71" cy="108.06" r="2.86"/>
    <circle cx="266.26" cy="75.23" r="2.86"/>
    <circle cx="290.21" cy="48.69" r="2.86"/>
    <circle cx="262.67" cy="81.53" r="2.86"/>
    <circle cx="286.60" cy="54.99" r="2.86"/>
    <circle cx="259.07" cy="87.85" r="2.86"/>
    <circle cx="282.99" cy="61.31" r="2.86"/>
    <circle cx="255.48" cy="94.18" r="2.86"/>
    <circle cx="236.74" cy="115.76" r="2.86"/>
    <circle cx="279.37" cy="67.64" r="2.86"/>
    <circle cx="275.75" cy="73.98" r="2.86"/>
    <circle cx="251.87" cy="100.54" r="2.86"/>
    <circle cx="233.12" cy="122.11" r="2.86"/>
    <circle cx="296.01" cy="53.79" r="2.86"/>
    <circle cx="272.13" cy="80.35" r="2.86"/>
    <circle cx="248.26" cy="106.92" r="2.86"/>
    <circle cx="292.36" cy="60.15" r="2.86"/>
    <circle cx="268.49" cy="86.73" r="2.86"/>
    <circle cx="288.71" cy="66.53" r="2.86"/>
    <circle cx="244.64" cy="113.34" r="2.86"/>
    <circle cx="264.85" cy="93.13" r="2.86"/>
    <circle cx="285.05" cy="72.93" r="2.86"/>
    <circle cx="301.57" cy="59.14" r="2.86"/>
    <circle cx="281.38" cy="79.35" r="2.86"/>
    <circle cx="261.19" cy="99.57" r="2.86"/>
    <circle cx="297.88" cy="65.57" r="2.86"/>
    <circle cx="277.69" cy="85.80" r="2.86"/>
    <circle cx="257.52" cy="106.03" r="2.86"/>
    <circle cx="294.17" cy="72.02" r="2.86"/>
    <circle cx="242.31" cy="121.15" r="2.86"/>
    <circle cx="273.99" cy="92.27" r="2.86"/>
    <circle cx="290.45" cy="78.50" r="2.86"/>
    <circle cx="253.82" cy="112.54" r="2.86"/>
    <circle cx="306.89" cy="64.73" r="2.86"/>
    <circle cx="270.27" cy="98.78" r="2.86"/>
    <circle cx="238.58" cy="127.64" r="2.86"/>
    <circle cx="286.70" cy="85.01" r="2.86"/>
    <circle cx="303.13" cy="71.24" r="2.86"/>
    <circle cx="250.10" cy="119.11" r="2.86"/>
    <circle cx="266.52" cy="105.33" r="2.86"/>
    <circle cx="282.94" cy="91.55" r="2.86"/>
    <circle cx="299.35" cy="77.78" r="2.86"/>
    <circle cx="311.95" cy="70.57" r="2.86"/>
    <circle cx="295.55" cy="84.35" r="2.86"/>
    <circle cx="279.14" cy="98.14" r="2.86"/>
    <circle cx="262.74" cy="111.93" r="2.86"/>
    <circle cx="308.11" cy="77.16" r="2.86"/>
    <circle cx="291.71" cy="90.96" r="2.86"/>
    <circle cx="275.31" cy="104.76" r="2.86"/>
    <circle cx="247.38" cy="127.01" r="2.86"/>
    <circle cx="258.92" cy="118.59" r="2.86"/>
    <circle cx="304.24" cy="83.78" r="2.86"/>
    <circle cx="287.84" cy="97.61" r="2.86"/>
    <circle cx="316.75" cy="76.62" r="2.86"/>
    <circle cx="271.44" cy="111.45" r="2.86"/>
    <circle cx="300.34" cy="90.45" r="2.86"/>
    <circle cx="243.47" cy="133.69" r="2.86"/>
    <circle cx="255.05" cy="125.32" r="2.86"/>
    <circle cx="283.93" cy="104.30" r="2.86"/>
    <circle cx="312.81" cy="83.30" r="2.86"/>
    <circle cx="296.39" cy="97.16" r="2.86"/>
  </g>
  <g style="fill:#0077B3" id="CSU">
    <circle cx="267.52" cy="118.19" r="2.86"/>
    <circle cx="308.83" cy="90.02" r="2.86"/>
    <circle cx="279.96" cy="111.06" r="2.86"/>
    <circle cx="321.27" cy="82.88" r="2.86"/>
    <circle cx="292.39" cy="103.93" r="2.86"/>
    <circle cx="304.81" cy="96.79" r="2.86"/>
    <circle cx="317.21" cy="89.66" r="2.86"/>
    <circle cx="263.53" cy="125.01" r="2.86"/>
    <circle cx="251.89" cy="133.32" r="2.86"/>
    <circle cx="275.93" cy="117.88" r="2.86"/>
    <circle cx="288.33" cy="110.75" r="2.86"/>
    <circle cx="300.72" cy="103.62" r="2.86"/>
    <circle cx="313.11" cy="96.48" r="2.86"/>
    <circle cx="325.50" cy="89.34" r="2.86"/>
    <circle cx="259.45" cy="131.93" r="2.86"/>
    <circle cx="271.82" cy="124.79" r="2.86"/>
    <circle cx="284.20" cy="117.64" r="2.86"/>
    <circle cx="296.57" cy="110.50" r="2.86"/>
    <circle cx="308.94" cy="103.36" r="2.86"/>
    <circle cx="321.31" cy="96.21" r="2.86"/>
    <circle cx="247.74" cy="140.19" r="2.86"/>
    <circle cx="329.43" cy="95.99" r="2.86"/>
    <circle cx="317.06" cy="103.14" r="2.86"/>
    <circle cx="304.70" cy="110.29" r="2.86"/>
    <circle cx="292.33" cy="117.45" r="2.86"/>
    <circle cx="279.97" cy="124.62" r="2.86"/>
    <circle cx="267.61" cy="131.79" r="2.86"/>
    <circle cx="325.10" cy="102.96" r="2.86"/>
    <circle cx="255.81" cy="140.00" r="2.86"/>
    <circle cx="312.73" cy="110.13" r="2.86"/>
    <circle cx="300.36" cy="117.30" r="2.86"/>
    <circle cx="288.00" cy="124.49" r="2.86"/>
    <circle cx="275.63" cy="131.68" r="2.86"/>
    <circle cx="333.06" cy="102.80" r="2.86"/>
    <circle cx="320.68" cy="109.99" r="2.86"/>
    <circle cx="263.26" cy="138.90" r="2.86"/>
    <circle cx="308.30" cy="117.18" r="2.86"/>
    <circle cx="295.92" cy="124.39" r="2.86"/>
    <circle cx="328.56" cy="109.87" r="2.86"/>
    <circle cx="283.54" cy="131.61" r="2.86"/>
    <circle cx="316.17" cy="117.08" r="2.86"/>
    <circle cx="251.34" cy="147.08" r="2.86"/>
    <circle cx="271.14" cy="138.86" r="2.86"/>
    <circle cx="303.76" cy="124.31" r="2.86"/>
    <circle cx="336.38" cy="109.77" r="2.86"/>
    <circle cx="323.96" cy="117.00" r="2.86"/>
  </g>
  <g style="fill:#00ADEF" id="AfD">
    <circle cx="291.35" cy="131.56" r="2.86"/>
    <circle cx="311.53" cy="124.25" r="2.86"/>
    <circle cx="259.11" cy="147.01" r="2.86"/>
    <circle cx="278.92" cy="138.84" r="2.86"/>
    <circle cx="331.70" cy="116.94" r="2.86"/>
    <circle cx="299.08" cy="131.52" r="2.86"/>
    <circle cx="319.24" cy="124.21" r="2.86"/>
    <circle cx="339.39" cy="116.88" r="2.86"/>
    <circle cx="266.47" cy="146.16" r="2.86"/>
    <circle cx="286.61" cy="138.83" r="2.86"/>
    <circle cx="306.75" cy="131.50" r="2.86"/>
    <circle cx="326.89" cy="124.17" r="2.86"/>
    <circle cx="334.50" cy="124.15" r="2.86"/>
    <circle cx="314.37" cy="131.49" r="2.86"/>
    <circle cx="294.24" cy="138.83" r="2.86"/>
    <circle cx="274.11" cy="146.19" r="2.86"/>
    <circle cx="254.25" cy="154.29" r="2.86"/>
    <circle cx="342.07" cy="124.13" r="2.86"/>
    <circle cx="321.94" cy="131.48" r="2.86"/>
    <circle cx="301.81" cy="138.84" r="2.86"/>
    <circle cx="281.68" cy="146.22" r="2.86"/>
    <circle cx="329.46" cy="131.48" r="2.86"/>
    <circle cx="309.33" cy="138.85" r="2.86"/>
    <circle cx="261.77" cy="154.29" r="2.86"/>
    <circle cx="336.96" cy="131.48" r="2.86"/>
    <circle cx="289.19" cy="146.25" r="2.86"/>
    <circle cx="316.81" cy="138.87" r="2.86"/>
    <circle cx="269.05" cy="153.68" r="2.86"/>
    <circle cx="344.42" cy="131.48" r="2.86"/>
    <circle cx="296.65" cy="146.28" r="2.86"/>
    <circle cx="324.25" cy="138.88" r="2.86"/>
    <circle cx="276.49" cy="153.73" r="2.86"/>
    <circle cx="304.08" cy="146.31" r="2.86"/>
    <circle cx="331.67" cy="138.90" r="2.86"/>
    <circle cx="339.07" cy="138.92" r="2.86"/>
    <circle cx="311.47" cy="146.34" r="2.86"/>
    <circle cx="283.88" cy="153.78" r="2.86"/>
    <circle cx="346.44" cy="138.93" r="2.86"/>
    <circle cx="318.84" cy="146.37" r="2.86"/>
    <circle cx="256.42" cy="161.76" r="2.86"/>
    <circle cx="291.25" cy="153.82" r="2.86"/>
    <circle cx="326.19" cy="146.40" r="2.86"/>
    <circle cx="298.58" cy="153.86" r="2.86"/>
    <circle cx="333.51" cy="146.42" r="2.86"/>
    <circle cx="263.76" cy="161.78" r="2.86"/>
    <circle cx="340.82" cy="146.45" r="2.86"/>
    <circle cx="305.89" cy="153.90" r="2.86"/>
    <circle cx="270.97" cy="161.38" r="2.86"/>
    <circle cx="348.12" cy="146.47" r="2.86"/>
    <circle cx="313.19" cy="153.94" r="2.86"/>
    <circle cx="278.26" cy="161.43" r="2.86"/>
    <circle cx="320.47" cy="153.97" r="2.86"/>
    <circle cx="327.73" cy="154.00" r="2.86"/>
    <circle cx="285.53" cy="161.48" r="2.86"/>
    <circle cx="334.98" cy="154.03" r="2.86"/>
    <circle cx="292.78" cy="161.52" r="2.86"/>
    <circle cx="342.22" cy="154.05" r="2.86"/>
    <circle cx="300.02" cy="161.56" r="2.86"/>
    <circle cx="349.46" cy="154.08" r="2.86"/>
    <circle cx="307.25" cy="161.59" r="2.86"/>
    <circle cx="314.46" cy="161.62" r="2.86"/>
    <circle cx="257.85" cy="169.40" r="2.86"/>
    <circle cx="321.67" cy="161.65" r="2.86"/>
    <circle cx="265.06" cy="169.42" r="2.86"/>
    <circle cx="328.88" cy="161.67" r="2.86"/>
    <circle cx="336.07" cy="161.69" r="2.86"/>
    <circle cx="272.23" cy="169.22" r="2.86"/>
    <circle cx="343.26" cy="161.71" r="2.86"/>
    <circle cx="279.42" cy="169.26" r="2.86"/>
    <circle cx="350.45" cy="161.73" r="2.86"/>
    <circle cx="286.61" cy="169.28" r="2.86"/>
    <circle cx="293.78" cy="169.31" r="2.86"/>
    <circle cx="300.96" cy="169.33" r="2.86"/>
    <circle cx="308.13" cy="169.35" r="2.86"/>
    <circle cx="315.30" cy="169.36" r="2.86"/>
    <circle cx="322.46" cy="169.38" r="2.86"/>
    <circle cx="329.62" cy="169.39" r="2.86"/>
    <circle cx="336.79" cy="169.41" r="2.86"/>
    <circle cx="343.94" cy="169.42" r="2.86"/>
    <circle cx="351.10" cy="169.43" r="2.86"/>
    <circle cx="258.52" cy="177.14" r="2.86"/>
    <circle cx="265.67" cy="177.14" r="2.86"/>
    <circle cx="272.81" cy="177.14" r="2.86"/>
    <circle cx="279.96" cy="177.14" r="2.86"/>
    <circle cx="287.10" cy="177.14" r="2.86"/>
    <circle cx="294.25" cy="177.14" r="2.86"/>
    <circle cx="301.39" cy="177.14" r="2.86"/>
    <circle cx="308.54" cy="177.14" r="2.86"/>
    <circle cx="315.68" cy="177.14" r="2.86"/>
    <circle cx="322.83" cy="177.14" r="2.86"/>
    <circle cx="329.97" cy="177.14" r="2.86"/>
    <circle cx="337.12" cy="177.14" r="2.86"/>
    <circle cx="344.26" cy="177.14" r="2.86"/>
    <circle cx="351.40" cy="177.14" r="2.86"/>
  </g>
</g>
</svg>
